# xmcd
#
# Track frame offsets: 
#        150
#        3395
#        7886
#        13381
#        17492
#        28311
#        39989
#
# Disc length: 784 seconds
#
# Revision: 0
# Processed by: cddbd v1.5.2PL0 Copyright (c) Steve Scherf et al.
# Submitted via: ExactAudioCopy v0.99pb4
#
DISCID=45030e07
DTITLE=Triac - In The Blue Room
DYEAR=2008
DGENRE=Metal
TTITLE0=Feeder
TTITLE1=Coward In The Smoke
TTITLE2=Shell Of A Man
TTITLE3=I Wish The Worst For You
TTITLE4=In The Blue Room
TTITLE5=Isolation Tank: Day 6
TTITLE6=My First Blasphemy
EXTD=
EXTT0=
EXTT1=
EXTT2=
EXTT3=
EXTT4=
EXTT5=
EXTT6=
PLAYORDER=
